<?xml version="1.0" standalone="no"?>
<!DOCTYPE svg PUBLIC "-//W3C//DTD SVG 20010904//EN"
 "http://www.w3.org/TR/2001/REC-SVG-20010904/DTD/svg10.dtd">
<svg version="1.0" xmlns="http://www.w3.org/2000/svg"
 width="200.000000pt" height="200.000000pt" viewBox="0 0 200.000000 200.000000"
 preserveAspectRatio="xMidYMid meet">

<g transform="translate(0.000000,200.000000) scale(0.100000,-0.100000)"
fill="#000000" stroke="none">
<path d="M349 1862 c-134 -36 -233 -121 -264 -225 -22 -73 -21 -339 1 -404 55
-163 202 -243 444 -243 241 0 378 75 440 239 27 69 29 334 4 408 -34 100 -110
171 -229 215 -84 30 -300 36 -396 10z m262 -245 c18 -12 36 -33 40 -47 14 -49
10 -239 -6 -276 -25 -59 -114 -82 -185 -46 -54 27 -61 50 -58 198 3 116 5 135
23 154 27 30 51 39 106 39 32 1 56 -6 80 -22z"/>
<path d="M1075 1858 c-3 -7 -4 -202 -3 -433 l3 -420 134 -3 c86 -2 138 1 145
8 7 7 13 79 16 181 l5 170 140 -178 140 -178 110 -3 c61 -2 120 0 133 3 l22 5
-2 428 -3 427 -134 3 c-90 2 -138 -1 -147 -9 -11 -9 -14 -51 -14 -197 l0 -186
-67 94 c-38 51 -102 139 -143 194 l-75 101 -128 3 c-96 2 -129 -1 -132 -10z"/>
<path d="M54 945 c-9 -22 -5 -29 157 -296 l149 -246 0 -141 c0 -77 3 -147 6
-156 5 -14 29 -16 160 -16 141 0 154 2 164 19 5 11 10 82 10 158 l0 138 156
257 c85 142 154 266 152 275 -3 16 -19 18 -147 21 -110 2 -149 -1 -165 -11
-11 -8 -52 -69 -91 -136 -38 -66 -73 -121 -76 -121 -3 0 -36 54 -73 120 -38
66 -78 127 -89 135 -31 22 -305 22 -313 0z"/>
<path d="M1070 945 c-10 -12 7 -44 100 -187 62 -95 120 -181 128 -190 13 -16
1 -38 -127 -233 -77 -119 -141 -220 -141 -225 0 -21 36 -25 182 -20 l153 5 62
95 c34 52 66 96 70 97 5 2 35 -40 68 -92 33 -52 65 -97 72 -99 10 -4 251 -9
311 -6 29 1 5 49 -118 234 -72 108 -130 201 -130 207 0 5 59 97 132 204 112
165 130 196 118 209 -18 23 -285 23 -317 1 -11 -8 -44 -51 -73 -96 l-52 -82
-42 69 c-22 38 -53 81 -68 96 l-26 28 -145 0 c-116 0 -147 -3 -157 -15z"/>
</g>
</svg>
